#!OML:ASF I:\Actors\actors\Patient Classification 1\Patient 1\Session 1\Subject1.ASF
:FULLY-SPECIFIED
:DEGREES
605
root -0.214849 17.5556 8.35186 6.46899 -9.1326 -6.65407
lowerback -0.89732 3.67293 5.55102
upperback -10.2818 5.32463 1.42568
thorax -10.084 2.19852 -1.95443
lowerneck -6.43864 4.05966 7.32601
upperneck 3.55933 4.70678 1.37498
head 2.39944 2.49052 -0.623295
rclavicle 1.14301e-014 1.05356e-014
rhumerus 19.8777 42.8075 -54.4313
rradius 84.5744
rwrist -23.7918
rhand 12.203 -57.3246
rfingers 7.12502
rthumb 37.2127 -803.334
lclavicle 1.14301e-014 1.05356e-014
lhumerus -29.0783 -42.3025 93.1618
lradius 99.483
lwrist 40.1082
lhand -42.7356 -0.104445
lfingers 7.12502
lthumb -15.6037 29.2862
rfemur 0.518839 27.0229 21.6527
rtibia 1.46802
rfoot -12.501 -17.781
rtoes -5.61319
lfemur 12.4211 -38.5171 -20.8165
ltibia -4.50919
lfoot -21.7648 52.2532
ltoes 11.5488
606
root -0.215325 17.5604 8.34622 6.79198 -9.2436 -6.60021
lowerback -0.905647 3.64174 5.78777
upperback -10.357 5.2909 1.3563
thorax -10.1431 2.15389 -2.15716
lowerneck -6.83131 4.30771 7.79923
upperneck 4.19805 4.9542 1.09477
head 2.72296 2.6328 -0.769361
rclavicle 2.00276e-014 -1.78906e-015
rhumerus 20.1932 40.3296 -55.7342
rradius 87.7196
rwrist -24.0681
rhand 14.1091 -53.8167
rfingers 7.12502
rthumb 39.0124 -799.333
lclavicle 2.00276e-014 -1.78906e-015
lhumerus -29.6609 -42.3688 93.1871
lradius 99.2987
lwrist 40.1778
lhand -42.6415 -0.092365
lfingers 7.12502
lthumb -15.5131 29.3053
rfemur 0.200968 27.3063 21.4279
rtibia 1.2927
rfoot -12.402 -17.9622
rtoes -5.59717
lfemur 12.0019 -38.615 -20.6406
ltibia -4.47328
lfoot -22.2569 52.3037
ltoes 12.2056
607
root -0.219123 17.5678 8.34309 7.12559 -9.07337 -6.59626
lowerback -0.947909 3.54028 5.97973
upperback -10.4761 5.16537 1.34128
thorax -10.249 2.06884 -2.27116
lowerneck -7.11227 4.48901 8.04547
upperneck 4.84874 5.13169 1.01625
head 3.01784 2.74332 -0.815768
rclavicle -5.11374e-014 -1.53064e-014
rhumerus 20.7797 38.9612 -55.9476
rradius 91.4259
rwrist -24.7155
rhand 12.9068 -49.7452
rfingers 7.12502
rthumb 37.8779 -795.578
lclavicle -5.11374e-014 -1.53064e-014
lhumerus -30.1363 -42.2006 93.3385
lradius 99.0336
lwrist 40.3608
lhand -42.7022 -0.273817
lfingers 7.12502
lthumb -15.5715 29.1193
rfemur -0.0606042 27.6018 21.3196
rtibia 1.13201
rfoot -12.3783 -18.4449
rtoes -5.64906
lfemur 11.4528 -38.7697 -20.2696
ltibia -4.43383
lfoot -22.4247 52.2003
ltoes 12.6145
608
root -0.225465 17.5723 8.34204 7.40306 -8.71021 -6.72031
lowerback -0.967899 3.38685 6.17906
upperback -10.6206 4.98151 1.41285
thorax -10.4119 1.95659 -2.29562
lowerneck -7.28563 4.61833 8.24732
upperneck 5.5562 5.25371 0.930615
head 3.31259 2.82706 -0.86067
rclavicle 4.22417e-015 3.47873e-014
rhumerus 21.4634 38.5478 -55.2629
rradius 95.4259
rwrist -24.9156
rhand 13.243 -48.2732
rfingers 7.12502
rthumb 38.1953 -794.019
lclavicle 4.22417e-015 3.47873e-014
lhumerus -30.5408 -41.804 93.5478
lradius 98.7784
lwrist 40.5825
lhand -42.8053 -0.329489
lfingers 7.12502
lthumb -15.6708 29.0559
rfemur -0.2283 27.9188 21.4353
rtibia 1.0505
rfoot -12.5376 -19.0709
rtoes -5.20075
lfemur 11.0042 -39.0595 -19.7616
ltibia -4.50112
lfoot -21.7963 52.2466
ltoes 11.9434
609
root -0.232391 17.5735 8.34276 7.58534 -8.15238 -6.8719
lowerback -1.00055 3.17844 6.33286
upperback -10.7224 4.7218 1.52329
thorax -10.5319 1.81586 -2.24599
lowerneck -7.46448 4.71763 8.30313
upperneck 6.25928 5.34095 0.976517
head 3.59854 2.89547 -0.83785
rclavicle -7.45443e-017 -9.54166e-015
rhumerus 22.2846 39.0922 -53.669
rradius 99.2635
rwrist -25.3261
rhand 11.5917 -45.1918
rfingers 7.12502
rthumb 36.6344 -791.35
lclavicle -7.45443e-017 -9.54166e-015
lhumerus -30.5707 -41.2584 93.6704
lradius 98.5157
lwrist 40.792
lhand -43.0163 -0.369426
lfingers 7.12502
lthumb -15.874 28.9999
rfemur -0.245537 28.1774 21.669
rtibia 0.960555
rfoot -12.7749 -19.8015
rtoes -4.66291
lfemur 10.6699 -39.4432 -19.26
ltibia -4.61051
lfoot -20.8876 52.2455
ltoes 10.8725
610
root -0.239427 17.5745 8.34437 7.66819 -7.49836 -6.95631
lowerback -1.05834 2.96086 6.37641
upperback -10.7584 4.43591 1.6015
thorax -10.5667 1.67513 -2.16483
lowerneck -7.75823 4.7892 8.28346
upperneck 6.9016 5.3768 1.16404
head 3.87837 2.94117 -0.754881
rclavicle -2.1419e-014 -4.37326e-015
rhumerus 22.91 39.962 -51.6733
rradius 102.621
rwrist -24.4357
rhand 15.9787 -43.7289
rfingers 7.12502
rthumb 40.7721 -788.717
lclavicle -2.1419e-014 -4.37326e-015
lhumerus -30.1957 -40.6845 93.6506
lradius 98.2394
lwrist 40.8016
lhand -43.1786 -0.353604
lfingers 7.12502
lthumb -16.0304 29.0032
rfemur -0.151409 28.2762 21.8843
rtibia 0.856542
rfoot -12.9317 -20.5276
rtoes -4.50826
lfemur 10.3368 -39.5886 -18.8025
ltibia -4.64934
lfoot -20.1764 51.845
ltoes 10.1895
611
root -0.247692 17.575 8.34619 7.66491 -6.88527 -6.94769
lowerback -1.13504 2.78681 6.28029
upperback -10.7433 4.19265 1.62442
thorax -10.5294 1.56854 -2.06675
lowerneck -8.0495 4.83012 8.37489
upperneck 7.3873 5.36623 1.29397
head 4.10961 2.96035 -0.714668
rclavicle -1.42628e-014 -3.97569e-015
rhumerus 23.1168 41.7868 -49.3449
rradius 105.856
rwrist -25.1267
rhand 19.6205 -42.7363
rfingers 7.12502
rthumb 44.1814 -786.551
lclavicle -1.42628e-014 -3.97569e-015
lhumerus -29.595 -40.2469 93.5176
lradius 98.0775
lwrist 40.6479
lhand -43.283 0.101937
lfingers 7.12502
lthumb -16.1309 29.4506
rfemur -0.0249631 28.1907 22.0038
rtibia 0.820441
rfoot -13.1025 -21.0286
rtoes -4.36344
lfemur 10.0389 -39.5416 -18.4836
ltibia -4.59246
lfoot -19.76 51.2222
ltoes 9.95934
612
root -0.253004 17.5707 8.34672 7.49026 -6.25711 -7.2343
lowerback -1.02684 2.6425 6.53846
upperback -10.6711 4.02385 1.69112
thorax -10.5182 1.46818 -2.13033
lowerneck -8.23642 4.80334 8.37943
upperneck 7.72397 5.28181 1.49986
head 4.25841 2.93981 -0.642669
rclavicle -4.42296e-015 1.18277e-014
rhumerus 22.8514 44.4351 -47.0771
rradius 108.576
rwrist -26.1837
rhand 23.306 -41.9815
rfingers 7.12502
rthumb 47.6015 -784.378
lclavicle -4.42296e-015 1.18277e-014
lhumerus -28.9012 -39.9459 93.2994
lradius 98.0971
lwrist 40.4199
lhand -43.4391 0.254774
lfingers 7.12502
lthumb -16.2812 29.5912
rfemur 0.368477 27.9645 22.5803
rtibia 0.777255
rfoot -13.2783 -21.3351
rtoes -4.08615
lfemur 10.0828 -39.4823 -18.0622
ltibia -4.59091
lfoot -19.2327 50.6677
ltoes 9.44276
613
root -0.250684 17.5581 8.34245 7.07423 -5.56755 -8.19343
lowerback -0.567353 2.53413 7.66373
upperback -10.5177 3.98782 1.8615
thorax -10.5876 1.35782 -2.58434
lowerneck -8.3959 4.66214 8.17345
upperneck 7.94973 5.06384 1.82743
head 4.34432 2.84966 -0.504136
rclavicle -9.86469e-015 7.7526e-015
rhumerus 22.2428 47.832 -45.0016
rradius 110.178
rwrist -27.5928
rhand 27.1491 -40.3068
rfingers 7.12502
rthumb 51.1265 -780.917
lclavicle -9.86469e-015 7.7526e-015
lhumerus -28.0784 -39.7754 92.985
lradius 98.2687
lwrist 40.1576
lhand -43.5496 -0.0406739
lfingers 7.12502
lthumb -16.3875 29.287
rfemur 1.1504 27.4732 24.1041
rtibia 0.702847
rfoot -13.3271 -21.4092
rtoes -3.95773
lfemur 10.5984 -39.2473 -17.1257
ltibia -4.79009
lfoot -17.9422 50.1346
ltoes 7.77784
614
root -0.27283 17.5654 8.34663 7.03741 -5.38213 -7.37836
lowerback -0.907599 2.58227 6.47423
upperback -10.4506 3.93597 1.62957
thorax -10.3411 1.43891 -2.15712
lowerneck -8.61545 4.42453 7.81452
upperneck 8.11905 4.72884 2.18347
head 4.41315 2.69726 -0.337019
rclavicle 1.29707e-014 2.06736e-014
rhumerus 21.4161 51.3647 -43.3278
rradius 110.599
rwrist -28.1434
rhand 33.0415 -39.9946
rfingers 7.12502
rthumb 56.4186 -777.055
lclavicle 1.29707e-014 2.06736e-014
lhumerus -27.1911 -39.7308 92.6985
lradius 98.5152
lwrist 39.896
lhand -43.445 -0.327414
lfingers 7.12502
lthumb -16.2868 29.0086
rfemur 1.09767 27.7811 23.2245
rtibia 0.744411
rfoot -13.5062 -21.9185
rtoes -3.62915
lfemur 10.3345 -39.456 -17.8567
ltibia -4.64049
lfoot -17.5589 50.1666
ltoes 7.19873
615
root -0.286315 17.5652 8.3478 6.89075 -5.14529 -7.13672
lowerback -1.00438 2.64243 6.0156
upperback -10.3599 3.97562 1.54329
thorax -10.1896 1.50207 -1.99292
lowerneck -8.87848 4.14278 7.28019
upperneck 8.27638 4.34719 2.61392
head 4.48052 2.52019 -0.116478
rclavicle -2.80286e-014 -3.18055e-014
rhumerus 20.812 55.0865 -41.7388
rradius 109.942
rwrist -28.7143
rhand 36.7574 -42.585
rfingers 7.12502
rthumb 59.6572 -776.72
lclavicle -2.80286e-014 -3.18055e-014
lhumerus -26.4667 -39.6529 92.5369
lradius 98.7744
lwrist 39.6587
lhand -43.3253 -0.880532
lfingers 7.12502
lthumb -16.1717 28.4649
rfemur 1.21149 27.6523 23.0533
rtibia 0.845264
rfoot -13.6507 -21.9992
rtoes -3.61963
lfemur 10.3239 -39.4182 -18.0655
ltibia -4.56347
lfoot -17.316 49.9519
ltoes 6.85504
616
root -0.295218 17.5611 8.34781 6.65551 -4.9643 -7.2293
lowerback -0.978818 2.69059 5.94517
upperback -10.2468 4.0368 1.57667
thorax -10.0769 1.54603 -1.9217
lowerneck -9.14122 3.8598 6.73301
upperneck 8.48563 3.96712 3.02627
head 4.57279 2.3446 0.101468
rclavicle 1.25731e-014 1.15295e-014
rhumerus 20.5784 58.4005 -40.3575
rradius 107.551
rwrist -27.692
rhand 43.8307 -45.5129
rfingers 7.12502
rthumb 65.4842 -771.862
lclavicle 1.25731e-014 1.15295e-014
lhumerus -25.9126 -39.4888 92.3799
lradius 99.1042
lwrist 39.4941
lhand -43.394 -1.39629
lfingers 7.12502
lthumb -16.2377 27.9437
rfemur 1.44981 27.3788 23.3108
rtibia 0.964594
rfoot -13.7852 -21.8696
rtoes -3.38819
lfemur 10.5223 -39.2119 -18.0078
ltibia -4.54677
lfoot -16.9635 49.6714
ltoes 6.28448
617
root -0.298851 17.555 8.34688 6.3708 -4.89963 -7.60887
lowerback -0.819661 2.76132 6.13326
upperback -10.1591 4.16608 1.76735
thorax -10.0687 1.6049 -1.8374
lowerneck -9.42649 3.57596 6.39628
upperneck 9.28125 3.57819 3.08932
head 4.39542 2.17036 0.157243
rclavicle -1.62506e-014 -2.88238e-014
rhumerus 21.077 61.4681 -38.66
rradius 104.181
rwrist -25.8238
rhand 47.6017 -49.8695
rfingers 7.12502
rthumb 68.3089 -770.347
lclavicle -1.62506e-014 -2.88238e-014
lhumerus -25.6708 -39.3147 92.4153
lradius 99.5613
lwrist 39.38
lhand -43.4613 -1.35905
lfingers 7.12502
lthumb -16.3026 27.9757
rfemur 1.7892 27.0178 23.9097
rtibia 1.023
rfoot -13.8147 -21.5447
rtoes -3.17919
lfemur 10.8756 -38.8998 -17.7296
ltibia -4.55367
lfoot -16.7522 49.3951
ltoes 5.86082
618
root -0.292528 17.5447 8.34195 6.04458 -4.90356 -8.406
lowerback -0.54339 2.88077 7.27939
upperback -10.0133 4.40381 1.81497
thorax -9.99445 1.62928 -2.44344
lowerneck -10.0372 3.20619 5.81111
upperneck 9.90259 3.04631 3.48214
head 4.66486 1.93501 0.351896
rclavicle -1.03368e-014 -2.14687e-014
rhumerus 22.3513 63.7321 -37.016
rradius 100.076
rwrist -23.4371
rhand 47.2206 -50.4272
rfingers 7.12502
rthumb 68.0357 -771.568
lclavicle -1.03368e-014 -2.14687e-014
lhumerus -25.437 -39.4945 92.0974
lradius 100.076
lwrist 39.4896
lhand -43.4641 -1.18178
lfingers 7.12502
lthumb -16.3053 28.1527
rfemur 2.24124 26.4111 24.9756
rtibia 0.992624
rfoot -13.6598 -20.9089
rtoes -3.50738
lfemur 11.4191 -38.5635 -17.1307
ltibia -4.59561
lfoot -16.6749 49.1584
ltoes 5.64205
